<svg id="visual" viewBox="0 0 1500 900" width="1500" height="900" xmlns="http://www.w3.org/2000/svg" xmlns:xlink="http://www.w3.org/1999/xlink" version="1.1"><rect x="0" y="0" width="1500" height="900" fill="#001220"></rect><defs><linearGradient id="grad1_0" x1="40%" y1="0%" x2="100%" y2="100%"><stop offset="16.666666666666664%" stop-color="#4facf7" stop-opacity="1"></stop><stop offset="83.33333333333334%" stop-color="#4facf7" stop-opacity="1"></stop></linearGradient></defs><defs><linearGradient id="grad1_1" x1="40%" y1="0%" x2="100%" y2="100%"><stop offset="16.666666666666664%" stop-color="#4facf7" stop-opacity="1"></stop><stop offset="83.33333333333334%" stop-color="#408fcf" stop-opacity="1"></stop></linearGradient></defs><defs><linearGradient id="grad1_2" x1="40%" y1="0%" x2="100%" y2="100%"><stop offset="16.666666666666664%" stop-color="#3174a8" stop-opacity="1"></stop><stop offset="83.33333333333334%" stop-color="#408fcf" stop-opacity="1"></stop></linearGradient></defs><defs><linearGradient id="grad1_3" x1="40%" y1="0%" x2="100%" y2="100%"><stop offset="16.666666666666664%" stop-color="#3174a8" stop-opacity="1"></stop><stop offset="83.33333333333334%" stop-color="#245983" stop-opacity="1"></stop></linearGradient></defs><defs><linearGradient id="grad1_4" x1="40%" y1="0%" x2="100%" y2="100%"><stop offset="16.666666666666664%" stop-color="#174060" stop-opacity="1"></stop><stop offset="83.33333333333334%" stop-color="#245983" stop-opacity="1"></stop></linearGradient></defs><defs><linearGradient id="grad1_5" x1="40%" y1="0%" x2="100%" y2="100%"><stop offset="16.666666666666664%" stop-color="#174060" stop-opacity="1"></stop><stop offset="83.33333333333334%" stop-color="#0b283e" stop-opacity="1"></stop></linearGradient></defs><defs><linearGradient id="grad1_6" x1="40%" y1="0%" x2="100%" y2="100%"><stop offset="16.666666666666664%" stop-color="#001220" stop-opacity="1"></stop><stop offset="83.33333333333334%" stop-color="#0b283e" stop-opacity="1"></stop></linearGradient></defs><defs><linearGradient id="grad2_0" x1="0%" y1="0%" x2="60%" y2="100%"><stop offset="16.666666666666664%" stop-color="#4facf7" stop-opacity="1"></stop><stop offset="83.33333333333334%" stop-color="#4facf7" stop-opacity="1"></stop></linearGradient></defs><defs><linearGradient id="grad2_1" x1="0%" y1="0%" x2="60%" y2="100%"><stop offset="16.666666666666664%" stop-color="#408fcf" stop-opacity="1"></stop><stop offset="83.33333333333334%" stop-color="#4facf7" stop-opacity="1"></stop></linearGradient></defs><defs><linearGradient id="grad2_2" x1="0%" y1="0%" x2="60%" y2="100%"><stop offset="16.666666666666664%" stop-color="#408fcf" stop-opacity="1"></stop><stop offset="83.33333333333334%" stop-color="#3174a8" stop-opacity="1"></stop></linearGradient></defs><defs><linearGradient id="grad2_3" x1="0%" y1="0%" x2="60%" y2="100%"><stop offset="16.666666666666664%" stop-color="#245983" stop-opacity="1"></stop><stop offset="83.33333333333334%" stop-color="#3174a8" stop-opacity="1"></stop></linearGradient></defs><defs><linearGradient id="grad2_4" x1="0%" y1="0%" x2="60%" y2="100%"><stop offset="16.666666666666664%" stop-color="#245983" stop-opacity="1"></stop><stop offset="83.33333333333334%" stop-color="#174060" stop-opacity="1"></stop></linearGradient></defs><defs><linearGradient id="grad2_5" x1="0%" y1="0%" x2="60%" y2="100%"><stop offset="16.666666666666664%" stop-color="#0b283e" stop-opacity="1"></stop><stop offset="83.33333333333334%" stop-color="#174060" stop-opacity="1"></stop></linearGradient></defs><defs><linearGradient id="grad2_6" x1="0%" y1="0%" x2="60%" y2="100%"><stop offset="16.666666666666664%" stop-color="#0b283e" stop-opacity="1"></stop><stop offset="83.33333333333334%" stop-color="#001220" stop-opacity="1"></stop></linearGradient></defs><g transform="translate(1500, 0)"><path d="M0 437.3C-61.2 436.1 -122.4 434.8 -167.4 404C-212.3 373.3 -240.9 313 -265.2 265.2C-289.4 217.3 -309.3 181.8 -337.2 139.7C-365.2 97.5 -401.2 48.8 -437.3 0L0 0Z" fill="#061d2f"></path><path d="M0 374.8C-52.5 373.8 -104.9 372.7 -143.4 346.3C-182 320 -206.5 268.3 -227.3 227.3C-248.1 186.3 -265.1 155.8 -289 119.7C-313 83.6 -343.9 41.8 -374.8 0L0 0Z" fill="#11344f"></path><path d="M0 312.4C-43.7 311.5 -87.4 310.6 -119.5 288.6C-151.6 266.6 -172.1 223.6 -189.4 189.4C-206.7 155.2 -220.9 129.9 -240.9 99.8C-260.8 69.7 -286.6 34.8 -312.4 0L0 0Z" fill="#1d4d71"></path><path d="M0 249.9C-35 249.2 -70 248.5 -95.6 230.9C-121.3 213.3 -137.7 178.9 -151.5 151.5C-165.4 124.2 -176.7 103.9 -192.7 79.8C-208.7 55.7 -229.3 27.9 -249.9 0L0 0Z" fill="#2a6695"></path><path d="M0 187.4C-26.2 186.9 -52.5 186.3 -71.7 173.2C-91 160 -103.3 134.2 -113.6 113.6C-124 93.1 -132.5 77.9 -144.5 59.9C-156.5 41.8 -172 20.9 -187.4 0L0 0Z" fill="#3982bb"></path><path d="M0 124.9C-17.5 124.6 -35 124.2 -47.8 115.4C-60.7 106.7 -68.8 89.4 -75.8 75.8C-82.7 62.1 -88.4 51.9 -96.3 39.9C-104.3 27.9 -114.6 13.9 -124.9 0L0 0Z" fill="#479ee3"></path><path d="M0 62.5C-8.7 62.3 -17.5 62.1 -23.9 57.7C-30.3 53.3 -34.4 44.7 -37.9 37.9C-41.3 31 -44.2 26 -48.2 20C-52.2 13.9 -57.3 7 -62.5 0L0 0Z" fill="#4facf7"></path></g><g transform="translate(0, 900)"><path d="M0 -437.3C62.9 -436.9 125.9 -436.4 167.4 -404C208.8 -371.6 228.9 -307.2 263.8 -263.8C298.6 -220.3 348.3 -197.8 379.7 -157.3C411.1 -116.8 424.2 -58.4 437.3 0L0 0Z" fill="#061d2f"></path><path d="M0 -374.8C53.9 -374.5 107.9 -374.1 143.4 -346.3C179 -318.5 196.2 -263.3 226.1 -226.1C256 -188.8 298.6 -169.5 325.5 -134.8C352.4 -100.1 363.6 -50.1 374.8 0L0 0Z" fill="#11344f"></path><path d="M0 -312.4C45 -312.1 89.9 -311.7 119.5 -288.6C149.2 -265.4 163.5 -219.4 188.4 -188.4C213.3 -157.3 248.8 -141.3 271.2 -112.3C293.7 -83.4 303 -41.7 312.4 0L0 0Z" fill="#1d4d71"></path><path d="M0 -249.9C36 -249.6 71.9 -249.4 95.6 -230.9C119.3 -212.4 130.8 -175.6 150.7 -150.7C170.6 -125.9 199 -113 217 -89.9C234.9 -66.8 242.4 -33.4 249.9 0L0 0Z" fill="#2a6695"></path><path d="M0 -187.4C27 -187.2 53.9 -187 71.7 -173.2C89.5 -159.3 98.1 -131.7 113 -113C128 -94.4 149.3 -84.8 162.7 -67.4C176.2 -50.1 181.8 -25 187.4 0L0 0Z" fill="#3982bb"></path><path d="M0 -124.9C18 -124.8 36 -124.7 47.8 -115.4C59.7 -106.2 65.4 -87.8 75.4 -75.4C85.3 -62.9 99.5 -56.5 108.5 -44.9C117.5 -33.4 121.2 -16.7 124.9 0L0 0Z" fill="#479ee3"></path><path d="M0 -62.5C9 -62.4 18 -62.3 23.9 -57.7C29.8 -53.1 32.7 -43.9 37.7 -37.7C42.7 -31.5 49.8 -28.3 54.2 -22.5C58.7 -16.7 60.6 -8.3 62.5 0L0 0Z" fill="#4facf7"></path></g></svg>